# xmcd
# Copyright (C) 1995-1998 Ti Kan
#
# Track frame offsets:
#       150
#       36522
#       52298
#       69767
#       90672
#       109378
#       120654
#       147267
#       167224
#       182617
#       195260
#       214146
#
# Disc length: 3364 seconds
#
# Revision: 0
# Processed by: cddbd v1.5.2PL0 Copyright (c) Steve Scherf et al.
# Submitted via: CD-Import v1.0
#
DISCID=b00d220c
DTITLE=Tocotronic - Schall and Wahn
DYEAR=10
DGENRE=
TTITLE0=Eure Liebe Tötet Mich
TTITLE1=Ein Leiser Hauch Von Terror
TTITLE2=Die Folter Endet Nie
TTITLE3=Das Blut An Meinen Händen
TTITLE4=Macht Es Nicht Selbst
TTITLE5=Bitte Oszillieren Sie
TTITLE6=Schall Und Wahn
TTITLE7=Im Zweifel Für Den Zweifel
TTITLE8=Keine Meisterwerke Mehr
TTITLE9=Stürmt Das Schloss
TTITLE10=Gesang Des Tyrannen
TTITLE11=Gift
EXTD=
EXTT0=
EXTT1=
EXTT2=
EXTT3=
EXTT4=
EXTT5=
EXTT6=
EXTT7=
EXTT8=
EXTT9=
EXTT10=
EXTT11=
PLAYORDER=
